<?xml version="1.0" standalone="no"?>
<!DOCTYPE svg PUBLIC "-//W3C//DTD SVG 20010904//EN"
 "http://www.w3.org/TR/2001/REC-SVG-20010904/DTD/svg10.dtd">
<svg version="1.0" xmlns="http://www.w3.org/2000/svg"
 width="140.000000pt" height="142.000000pt" viewBox="0 0 140.000000 142.000000"
 preserveAspectRatio="xMidYMid meet">

<g transform="translate(0.000000,142.000000) scale(0.100000,-0.100000)"
fill="#000000" stroke="none">
<path d="M643 1165 c-7 -8 -13 -23 -13 -35 0 -11 -4 -20 -10 -20 -5 0 -10 -7
-10 -15 0 -17 -49 -109 -62 -113 -4 -2 -8 -8 -8 -13 0 -11 -14 -30 -48 -62
-52 -51 -72 -67 -82 -67 -5 0 -10 -4 -10 -10 0 -5 -9 -10 -20 -10 -11 0 -20
-4 -20 -10 0 -5 -9 -10 -20 -10 -11 0 -20 -4 -20 -10 0 -5 -9 -10 -20 -10 -35
0 -80 -29 -80 -50 0 -11 7 -20 15 -20 8 0 15 -4 15 -10 0 -5 11 -10 24 -10 14
0 31 -7 40 -15 8 -8 22 -15 30 -15 9 0 16 -4 16 -10 0 -5 9 -10 20 -10 11 0
20 -4 20 -10 0 -5 4 -10 10 -10 10 0 54 -34 74 -58 6 -7 21 -24 34 -37 12 -13
22 -27 22 -30 0 -3 6 -13 13 -21 42 -50 57 -78 57 -104 0 -11 5 -20 10 -20 6
0 10 -9 10 -21 0 -19 21 -49 35 -49 14 0 35 30 35 49 0 12 5 21 10 21 6 0 10
11 10 25 0 14 5 25 10 25 6 0 10 7 10 15 0 15 6 25 38 60 6 7 12 16 12 20 0
19 110 125 130 125 6 0 10 5 10 10 0 6 9 10 20 10 11 0 20 4 20 8 0 11 66 42
90 42 11 0 20 5 20 10 0 6 7 10 15 10 8 0 15 9 15 20 0 21 -45 50 -80 50 -11
0 -20 5 -20 10 0 6 -9 10 -20 10 -11 0 -20 5 -20 10 0 6 -9 10 -20 10 -11 0
-20 5 -20 10 0 6 -4 10 -10 10 -10 0 -54 34 -74 58 -6 7 -21 24 -33 37 -13 13
-23 27 -23 30 0 4 -6 13 -12 20 -37 41 -58 80 -58 105 0 11 -4 20 -10 20 -5 0
-10 9 -10 21 0 21 -22 49 -37 49 -4 -1 -14 -7 -20 -15z m57 -190 c0 -8 5 -15
10 -15 6 0 10 -5 10 -10 0 -18 128 -150 145 -150 4 0 13 -6 20 -12 33 -30 45
-38 55 -38 5 0 10 -2 10 -4 0 -2 3 -11 6 -20 4 -12 0 -16 -15 -16 -12 0 -21
-4 -21 -10 0 -5 -7 -10 -15 -10 -9 0 -26 -11 -39 -25 -13 -14 -28 -25 -35 -25
-6 0 -11 -4 -11 -10 0 -5 -7 -10 -15 -10 -8 0 -15 -4 -15 -10 0 -9 -25 -42
-57 -76 -7 -7 -13 -17 -13 -23 0 -6 -4 -11 -10 -11 -5 0 -10 -7 -10 -16 0 -15
-23 -44 -35 -44 -12 0 -35 29 -35 44 0 9 -4 16 -10 16 -5 0 -10 5 -10 11 0 6
-6 16 -12 23 -33 34 -58 67 -58 76 0 6 -8 10 -18 10 -9 0 -23 9 -30 20 -7 11
-19 20 -27 20 -8 0 -15 7 -15 15 0 8 -9 15 -20 15 -11 0 -20 5 -20 10 0 6 -6
10 -14 10 -12 0 -32 30 -24 34 2 1 20 11 41 21 20 11 37 23 37 27 0 5 7 8 15
8 8 0 15 5 15 10 0 6 5 10 10 10 9 0 30 20 100 97 11 12 20 27 20 33 0 5 5 10
10 10 6 0 10 7 10 15 0 8 8 24 17 35 17 19 17 19 35 0 10 -10 18 -26 18 -35z"/>
<path d="M950 1102 c0 -13 -31 -47 -55 -60 -11 -6 -15 -12 -8 -12 14 0 63 -47
63 -60 0 -6 9 -10 20 -10 12 0 20 7 20 16 0 18 18 37 44 47 18 7 17 10 -12 30
-17 12 -32 30 -32 40 0 10 -8 17 -20 17 -11 0 -20 -4 -20 -8z"/>
</g>
</svg>
