<?xml version="1.0" standalone="no"?>
<!DOCTYPE svg PUBLIC "-//W3C//DTD SVG 20010904//EN"
 "http://www.w3.org/TR/2001/REC-SVG-20010904/DTD/svg10.dtd">
<svg version="1.0" xmlns="http://www.w3.org/2000/svg"
 width="125.000000pt" height="127.000000pt" viewBox="0 0 125.000000 127.000000"
 preserveAspectRatio="xMidYMid meet">

<g transform="translate(0.000000,127.000000) scale(0.100000,-0.100000)"
fill="#000000" stroke="none">
<path d="M383 1073 c-29 -2 -53 -8 -53 -14 0 -5 -11 -9 -25 -9 -14 0 -25 -4
-25 -10 0 -5 -9 -10 -20 -10 -11 0 -20 -5 -20 -11 0 -6 -14 -24 -30 -39 -17
-16 -33 -42 -36 -59 -4 -17 -10 -31 -15 -31 -5 0 -9 -130 -9 -290 0 -159 4
-290 8 -290 4 0 14 -16 21 -36 17 -48 95 -124 127 -124 13 0 24 -4 24 -10 0
-6 105 -10 295 -10 190 0 295 4 295 10 0 6 6 10 13 10 25 0 72 30 101 64 56
66 60 87 63 377 l4 265 -26 58 c-31 70 -93 136 -128 136 -14 0 -27 5 -29 12
-4 12 -421 21 -535 11z m457 -64 c36 -5 69 -14 74 -20 6 -5 16 -9 24 -9 18 0
72 -57 72 -76 0 -8 5 -14 10 -14 6 0 10 -25 10 -55 0 -30 5 -55 10 -55 6 0 10
-67 10 -180 0 -113 -4 -180 -10 -180 -5 0 -10 -25 -10 -55 0 -30 -4 -55 -10
-55 -5 0 -10 -6 -10 -12 0 -19 -55 -78 -72 -78 -8 0 -18 -4 -24 -8 -19 -18
-147 -32 -287 -32 -150 0 -297 16 -297 31 0 5 -7 9 -16 9 -18 0 -74 58 -74 78
0 6 -4 12 -10 12 -5 0 -10 25 -10 55 0 30 -4 55 -10 55 -6 0 -10 67 -10 180 0
113 4 180 10 180 6 0 10 25 10 55 0 30 5 55 10 55 6 0 10 6 10 14 0 19 55 76
73 76 9 0 17 5 19 10 8 26 379 40 508 19z"/>
<path d="M443 835 c-52 -23 -83 -59 -83 -99 0 -45 18 -84 42 -91 10 -4 18 -11
18 -16 0 -16 84 -10 110 8 44 30 50 41 50 87 0 50 -24 87 -72 112 -32 17 -25
17 -65 -1z m53 -69 c8 -8 14 -28 14 -45 0 -28 -3 -31 -31 -31 -53 0 -75 38
-41 71 21 22 39 23 58 5z"/>
<path d="M735 610 c-3 -5 -15 -10 -26 -10 -12 0 -19 -7 -19 -18 0 -10 -9 -24
-20 -32 -11 -8 -20 -20 -20 -27 0 -7 -5 -13 -11 -13 -13 0 -39 -25 -39 -38 0
-15 -30 -23 -48 -13 -9 5 -24 19 -32 30 -8 12 -22 21 -32 21 -10 0 -18 5 -18
10 0 6 -16 10 -35 10 -19 0 -35 -4 -35 -10 0 -5 -5 -10 -10 -10 -14 0 -80 -66
-80 -80 0 -5 -4 -10 -10 -10 -17 0 -11 -37 6 -44 19 -7 57 15 96 57 33 34 54
31 103 -19 24 -24 43 -34 65 -34 16 0 30 5 30 10 0 6 5 10 10 10 11 0 60 45
60 54 0 11 96 106 107 106 6 0 38 -27 72 -61 52 -51 66 -60 87 -55 13 4 24 13
24 21 0 17 -114 135 -130 135 -5 0 -10 5 -10 10 0 6 -18 10 -39 10 -22 0 -43
-4 -46 -10z"/>
</g>
</svg>
