<?xml version="1.0" standalone="no"?>
<!DOCTYPE svg PUBLIC "-//W3C//DTD SVG 20010904//EN"
 "http://www.w3.org/TR/2001/REC-SVG-20010904/DTD/svg10.dtd">
<svg version="1.0" xmlns="http://www.w3.org/2000/svg"
 width="126.000000pt" height="158.000000pt" viewBox="0 0 126.000000 158.000000"
 preserveAspectRatio="xMidYMid meet">

<g transform="translate(0.000000,158.000000) scale(0.100000,-0.100000)"
fill="#000000" stroke="none">
<path d="M568 1233 c-16 -2 -28 -9 -28 -14 0 -5 -9 -9 -20 -9 -11 0 -20 -4
-20 -10 0 -5 -7 -10 -15 -10 -8 0 -15 -7 -15 -15 0 -8 -4 -15 -10 -15 -5 0
-10 -9 -10 -19 0 -11 -6 -21 -12 -23 -19 -7 -19 -419 0 -425 6 -3 12 -12 12
-20 0 -18 59 -73 78 -73 6 0 12 -4 12 -10 0 -6 37 -10 90 -10 53 0 90 4 90 10
0 6 6 10 13 10 18 0 77 55 77 73 0 8 6 17 13 19 18 7 18 419 0 425 -7 3 -13
13 -13 24 0 10 -4 19 -10 19 -5 0 -10 7 -10 15 0 8 -7 15 -15 15 -8 0 -15 5
-15 10 0 6 -9 10 -19 10 -11 0 -21 4 -23 9 -4 10 -111 21 -150 14z m106 -65
c45 -13 52 -19 81 -63 37 -56 32 -405 -6 -405 -5 0 -9 -7 -9 -15 0 -8 -9 -15
-20 -15 -11 0 -20 -4 -20 -10 0 -5 -11 -10 -25 -10 -14 0 -25 -4 -25 -10 0 -5
-9 -10 -20 -10 -11 0 -20 5 -20 10 0 6 -14 10 -31 10 -28 0 -59 19 -59 36 0 4
-8 16 -17 27 -15 16 -19 43 -21 164 -4 143 7 224 32 248 19 18 61 43 81 48 32
8 36 8 79 -5z"/>
<path d="M263 885 c-16 -17 -18 -165 -3 -165 6 0 10 -16 10 -35 0 -19 5 -35
10 -35 6 0 10 -8 10 -19 0 -10 7 -24 15 -31 8 -7 15 -18 15 -24 0 -6 9 -18 20
-26 11 -8 20 -20 20 -26 0 -7 13 -18 30 -26 16 -7 30 -16 30 -20 0 -5 7 -8 15
-8 8 0 15 -4 15 -10 0 -5 8 -10 18 -10 9 0 26 -7 36 -15 11 -8 34 -15 52 -15
37 0 44 -12 44 -81 0 -48 1 -49 30 -49 29 0 30 1 30 49 0 67 7 81 41 81 29 0
101 29 107 43 2 4 12 7 23 7 10 0 19 5 19 10 0 6 5 10 11 10 12 0 39 25 39 36
0 3 8 14 18 23 25 23 52 67 52 86 0 8 5 15 10 15 6 0 10 16 10 35 0 19 5 35
10 35 6 0 10 30 10 70 0 55 -4 75 -19 91 -17 19 -20 19 -35 4 -12 -12 -16 -35
-16 -90 0 -41 -4 -77 -10 -80 -5 -3 -10 -19 -10 -36 0 -16 -4 -29 -10 -29 -5
0 -10 -5 -10 -10 0 -32 -110 -130 -145 -130 -8 0 -15 -4 -15 -10 0 -5 -20 -10
-45 -10 -25 0 -45 -4 -45 -10 0 -5 -9 -10 -20 -10 -11 0 -20 5 -20 10 0 6 -20
10 -45 10 -25 0 -45 5 -45 10 0 6 -7 10 -15 10 -21 0 -64 28 -95 62 -43 47
-50 57 -50 68 0 5 -4 10 -10 10 -5 0 -10 16 -10 35 0 19 -4 35 -10 35 -6 0
-10 35 -10 85 0 47 -4 85 -9 85 -5 0 -15 2 -23 5 -7 2 -19 -2 -25 -10z"/>
</g>
</svg>
