<?xml version="1.0" standalone="no"?>
<!DOCTYPE svg PUBLIC "-//W3C//DTD SVG 20010904//EN"
 "http://www.w3.org/TR/2001/REC-SVG-20010904/DTD/svg10.dtd">
<svg version="1.0" xmlns="http://www.w3.org/2000/svg"
 width="173.000000pt" height="187.000000pt" viewBox="0 0 173.000000 187.000000"
 preserveAspectRatio="xMidYMid meet">

<g transform="translate(0.000000,187.000000) scale(0.100000,-0.100000)"
fill="#000000" stroke="none">
<path d="M1178 1444 c-10 -3 -18 -10 -18 -15 0 -5 -21 -9 -47 -9 -27 0 -57 -7
-67 -15 -11 -8 -32 -15 -48 -15 -15 0 -28 -4 -28 -9 0 -5 -22 -12 -50 -16 -27
-4 -50 -11 -50 -16 0 -5 -16 -9 -36 -9 -19 0 -42 -7 -50 -15 -9 -8 -33 -15
-55 -15 -21 0 -39 -4 -39 -9 0 -4 -19 -11 -42 -14 -24 -3 -44 -11 -46 -16 -2
-6 -19 -11 -39 -11 -19 0 -41 -7 -49 -15 -9 -8 -33 -15 -55 -15 -21 0 -39 -4
-39 -10 0 -5 -11 -10 -25 -10 -16 0 -25 -6 -25 -15 0 -8 -7 -15 -15 -15 -10 0
-16 -11 -17 -32 -2 -53 3 -93 13 -96 5 -2 9 -10 9 -18 0 -8 7 -14 15 -14 8 0
15 -4 15 -9 0 -5 11 -12 25 -15 14 -4 25 -11 25 -16 0 -6 6 -10 14 -10 8 0 16
-7 20 -15 3 -8 15 -15 26 -15 11 0 20 -4 20 -10 0 -5 6 -10 14 -10 8 0 21 -6
28 -13 7 -6 30 -21 51 -32 20 -11 37 -23 37 -27 0 -5 5 -8 11 -8 6 0 26 -15
45 -34 19 -19 34 -39 34 -45 0 -6 5 -11 10 -11 6 0 10 -9 10 -19 0 -10 7 -21
15 -25 8 -3 15 -12 15 -21 0 -8 4 -15 10 -15 5 0 12 -11 16 -25 3 -14 10 -25
14 -25 4 0 11 -11 14 -25 4 -14 11 -25 16 -25 6 0 10 -7 10 -15 0 -8 4 -15 10
-15 5 0 12 -11 16 -25 3 -14 10 -25 15 -25 5 0 9 -5 9 -11 0 -20 27 -37 61
-39 68 -5 99 0 99 15 0 8 7 15 15 15 9 0 15 9 15 25 0 14 5 25 10 25 6 0 10
18 10 39 0 22 7 46 15 55 8 8 15 31 15 51 0 20 7 43 15 51 8 9 15 33 15 55 0
21 5 39 10 39 6 0 10 13 10 29 0 16 7 36 15 45 8 8 15 31 15 50 0 20 4 36 9
36 5 0 12 23 16 50 4 28 11 50 16 50 5 0 9 18 9 40 0 27 5 43 15 46 10 4 15
21 15 54 0 30 5 50 13 53 8 2 12 27 12 74 0 89 -14 106 -94 109 -31 2 -64 0
-73 -2z m86 -70 c11 -29 6 -93 -9 -108 -8 -8 -15 -30 -15 -49 0 -20 -5 -37
-11 -39 -6 -2 -14 -27 -17 -56 -2 -29 -8 -52 -12 -52 -4 0 -10 -18 -14 -40 -3
-22 -11 -40 -16 -40 -6 0 -10 -22 -10 -50 0 -27 -4 -50 -10 -50 -5 0 -13 -18
-16 -40 -4 -22 -10 -40 -15 -40 -5 0 -9 -18 -9 -40 0 -29 -4 -40 -15 -40 -11
0 -15 -12 -15 -51 0 -31 -6 -56 -15 -65 -8 -9 -15 -26 -15 -40 0 -22 -27 -64
-41 -64 -15 0 -59 51 -59 70 0 11 -7 20 -15 20 -9 0 -15 9 -15 25 0 16 -6 25
-15 25 -8 0 -15 7 -15 15 0 8 -4 15 -10 15 -5 0 -10 11 -10 25 0 16 -6 25 -15
25 -8 0 -15 9 -15 20 0 12 -11 31 -25 44 -14 13 -25 26 -25 30 0 12 57 66 69
66 6 0 11 5 11 11 0 6 6 17 14 25 8 8 19 14 25 14 6 0 11 5 11 11 0 14 55 69
69 69 6 0 11 5 11 11 0 6 18 29 40 50 29 28 40 47 40 69 0 26 -4 30 -26 30
-26 0 -54 -20 -54 -39 0 -6 -5 -11 -11 -11 -14 0 -69 -55 -69 -69 0 -6 -5 -11
-11 -11 -6 0 -24 -13 -40 -29 -16 -16 -29 -34 -29 -40 0 -6 -5 -11 -11 -11 -6
0 -24 -13 -40 -29 -16 -16 -29 -34 -29 -40 0 -6 -11 -11 -25 -11 -14 0 -25 4
-25 10 0 5 -11 12 -25 16 -14 3 -25 10 -25 15 0 5 -7 9 -15 9 -8 0 -15 7 -15
15 0 9 -9 15 -21 15 -12 0 -32 11 -45 25 -13 14 -32 25 -44 25 -11 0 -20 7
-20 15 0 9 -9 15 -25 15 -14 0 -25 5 -25 10 0 6 -6 10 -12 10 -7 0 -18 11 -25
25 -6 14 -7 25 -2 25 5 0 9 7 9 15 0 11 11 15 39 15 22 0 46 7 55 15 8 8 31
15 51 15 20 0 43 7 51 15 9 8 33 15 55 15 21 0 39 5 39 10 0 6 16 10 35 10 22
0 38 6 41 15 4 11 21 15 55 15 27 0 49 4 49 10 0 5 18 13 40 16 22 4 40 10 40
15 0 5 17 9 38 9 20 0 46 7 56 15 11 8 37 15 58 15 21 0 38 4 38 9 0 5 18 11
40 15 22 3 40 11 40 16 0 16 17 12 24 -6z"/>
</g>
</svg>
